# xmcd
#
# Track frame offsets: 
#        150
#        18316
#        38151
#        55081
#        79900
#        99663
#        116278
#        139342
#        158030
#        171221
#
# Disc length: 2464 seconds
#
# Revision: 0
# Processed by: cddbd v1.5.2PL0 Copyright (c) Steve Scherf et al.
# Submitted via: ExactAudioCopy v0.99pb5
#
DISCID=79099e0a
DTITLE=Visage - Hearts And Knives
DYEAR=2013
DGENRE=Synthpop
TTITLE0=Never Enough
TTITLE1=Shameless Fashion
TTITLE2=She's Electric (Coming Around)
TTITLE3=Hidden Sign
TTITLE4=On We Go
TTITLE5=Dreamer I Know
TTITLE6=Lost In Static
TTITLE7=I Am Watching
TTITLE8=Diaries Of A Madman
TTITLE9=Breathe Life
EXTD=
EXTT0=
EXTT1=
EXTT2=
EXTT3=
EXTT4=
EXTT5=
EXTT6=
EXTT7=
EXTT8=
EXTT9=
PLAYORDER=
